<mxfile host="app.diagrams.net" modified="2024-04-14T21:49:28.530Z" agent="Mozilla/5.0 (Windows NT 10.0; Win64; x64; rv:124.0) Gecko/20100101 Firefox/124.0" version="24.2.3" etag="0KIPPJsV03VhlNq8yMeZ" type="github">
  <diagram name="PÃ¡gina-1" id="GyDcyAgr15_voH2KFKZd">
    <mxGraphModel>
      <root>
        <mxCell id="0" />
        <mxCell id="1" parent="0" />
      </root>
    </mxGraphModel>
  </diagram>
</mxfile>
